<svg id="quote_icon" xmlns="http://www.w3.org/2000/svg" width="26.28" height="20.66" viewBox="0 0 26.28 20.66">
  <path id="Path_3220" data-name="Path 3220" d="M12.1,5.9l-2.16.94a3.292,3.292,0,0,0-1.8,1.58,6.036,6.036,0,0,0-.5,1.51h3.1V20.66H0V11.95A14.094,14.094,0,0,1,1.58,5.04,10.333,10.333,0,0,1,6.7.65L8.28,0,12.1,5.9Z" fill="#fff"/>
  <path id="Path_3221" data-name="Path 3221" d="M26.28,5.9l-2.16.94a3.992,3.992,0,0,0-1.8,1.58,3.907,3.907,0,0,0-.5,1.51h3.1V20.66H14.19V11.95a14.094,14.094,0,0,1,1.58-6.91A10.707,10.707,0,0,1,20.88.65L22.39,0l3.89,5.9Z" fill="#fff"/>
</svg>
