<svg id="StiehlTech-Logo-FullColor-RGB" xmlns="http://www.w3.org/2000/svg" width="255.352" height="57" viewBox="0 0 255.352 57">
  <g id="Group_2" data-name="Group 2">
    <path id="Path_1" data-name="Path 1" d="M23.823,0,0,13.734V41.156L27.325,57,51.086,43.284V15.746ZM46.955,40.731,23.832,54.074,4.229,42.717V16.145L27.3,2.837,46.946,14.159V40.731Z" fill="#1f3469"/>
    <g id="Group_1" data-name="Group 1" transform="translate(13.104 3.263)">
      <path id="Path_2" data-name="Path 2" d="M38.861,3.68C32.8,3.68,33.081,9.274,23,11.526c10.081,2.252,9.8,7.846,15.861,7.846a7.846,7.846,0,0,0,0-15.693Z" transform="translate(-15.712 -3.68)" fill="#1f3469"/>
      <path id="Path_3" data-name="Path 3" d="M22.626,16.01c6.064,0,5.781,5.594,15.861,7.846-10.081,2.252-9.8,7.846-15.861,7.846a7.846,7.846,0,1,1,0-15.693Z" transform="translate(-14.78 -5.078)" fill="#4979a4"/>
      <path id="Path_4" data-name="Path 4" d="M47.633,35.886c0,6.064-5.594,5.781-7.846,15.861-2.252-10.081-7.846-9.8-7.846-15.861a7.846,7.846,0,1,1,15.693,0Z" transform="translate(-16.726 -6.442)" fill="#1f3469"/>
    </g>
  </g>
  <g id="Group_3" data-name="Group 3" transform="translate(62.532 16.854)">
    <path id="Path_5" data-name="Path 5" d="M88.36,38.9a6.244,6.244,0,0,1-1.755,2.27,7.862,7.862,0,0,1-2.7,1.4,11.823,11.823,0,0,1-3.467.488,15.462,15.462,0,0,1-5.24-.922,13.882,13.882,0,0,1-4.672-2.819l3.041-3.635a14.808,14.808,0,0,0,3.289,2.066,8.753,8.753,0,0,0,3.688.771,4.522,4.522,0,0,0,2.491-.585,1.855,1.855,0,0,0,.887-1.622v-.071a2.006,2.006,0,0,0-.186-.887,1.846,1.846,0,0,0-.7-.718,7.4,7.4,0,0,0-1.436-.665c-.612-.222-1.41-.452-2.394-.7A30.331,30.331,0,0,1,76,32.3a9.142,9.142,0,0,1-2.447-1.321,5.326,5.326,0,0,1-1.56-1.951,6.728,6.728,0,0,1-.55-2.908V26.05a6.8,6.8,0,0,1,.594-2.89,6.526,6.526,0,0,1,1.676-2.217,7.641,7.641,0,0,1,2.571-1.436,10.257,10.257,0,0,1,3.3-.5,13.941,13.941,0,0,1,4.726.771,13.666,13.666,0,0,1,3.954,2.208l-2.669,3.874a16.829,16.829,0,0,0-3.068-1.685,7.932,7.932,0,0,0-3.006-.621,3.617,3.617,0,0,0-2.252.585,1.8,1.8,0,0,0-.754,1.454v.071a2.017,2.017,0,0,0,.222.984,1.969,1.969,0,0,0,.789.754,7.576,7.576,0,0,0,1.56.638c.665.2,1.489.434,2.491.7A24.038,24.038,0,0,1,84.742,29.8a8.9,8.9,0,0,1,2.341,1.4,5.347,5.347,0,0,1,1.436,1.915,6.585,6.585,0,0,1,.488,2.633v.071a7.237,7.237,0,0,1-.629,3.085Z" transform="translate(-70.53 -19.01)" fill="#1f3469"/>
    <path id="Path_6" data-name="Path 6" d="M106.443,24.133V42.761H101.3V24.133H94.19V19.39h19.363v4.743h-7.111Z" transform="translate(-73.213 -19.053)" fill="#1f3469"/>
    <path id="Path_7" data-name="Path 7" d="M121.05,42.761V19.39h5.142V42.761Z" transform="translate(-76.259 -19.053)" fill="#1f3469"/>
    <path id="Path_8" data-name="Path 8" d="M133.76,42.761V19.39h17.59v4.575H138.831v4.743h11.021v4.575H138.831v4.912h12.687V42.77H133.76Z" transform="translate(-77.7 -19.053)" fill="#1f3469"/>
    <path id="Path_9" data-name="Path 9" d="M173.84,42.761v-9.38h-9.478v9.38H159.22V19.39h5.142v9.247h9.478V19.39h5.142V42.761Z" transform="translate(-80.587 -19.053)" fill="#1f3469"/>
    <path id="Path_10" data-name="Path 10" d="M188.09,42.761V19.39h5.142V38.115h11.65v4.637H188.09Z" transform="translate(-83.86 -19.053)" fill="#1f3469"/>
  </g>
  <g id="Group_4" data-name="Group 4" transform="translate(183.989 16.189)">
    <path id="Path_11" data-name="Path 11" d="M217.406,20.959v21.8h-1.738v-21.8H207.52V19.39h18.025v1.569H217.4Z" transform="translate(-207.52 -18.388)" fill="#4979a4"/>
    <path id="Path_12" data-name="Path 12" d="M229.349,38.494a7.313,7.313,0,0,0,1.507,2.092,6.217,6.217,0,0,0,2.057,1.312,6.6,6.6,0,0,0,2.429.452,6.893,6.893,0,0,0,3.4-.771,10.138,10.138,0,0,0,2.465-1.906l1.135,1A11.912,11.912,0,0,1,239.377,43a8.378,8.378,0,0,1-4.1.922,8.27,8.27,0,0,1-5.869-2.438,8.614,8.614,0,0,1-1.826-2.8,9.581,9.581,0,0,1-.665-3.635v-.071a9.532,9.532,0,0,1,.621-3.458,8.688,8.688,0,0,1,1.7-2.819A8.3,8.3,0,0,1,231.8,26.79a7.292,7.292,0,0,1,3.2-.7,7.641,7.641,0,0,1,3.236.683,7.215,7.215,0,0,1,2.456,1.888,8.4,8.4,0,0,1,1.569,2.819,10.971,10.971,0,0,1,.55,3.52v.364a1.565,1.565,0,0,1-.035.3H228.649a7.5,7.5,0,0,0,.7,2.819ZM241.061,34.2a9.591,9.591,0,0,0-.523-2.482,6.939,6.939,0,0,0-1.17-2.1,5.646,5.646,0,0,0-1.862-1.472,6.134,6.134,0,0,0-4.956-.053,6.09,6.09,0,0,0-1.924,1.383,7.515,7.515,0,0,0-1.357,2.1,7.973,7.973,0,0,0-.638,2.624h12.421Z" transform="translate(-209.72 -19.148)" fill="#4979a4"/>
    <path id="Path_13" data-name="Path 13" d="M261.424,42.943a7.733,7.733,0,0,1-3.99.966,8.194,8.194,0,0,1-3.422-.718,8.776,8.776,0,0,1-2.748-1.924,8.892,8.892,0,0,1-2.474-6.206V34.99a8.921,8.921,0,0,1,.656-3.4,9.244,9.244,0,0,1,1.818-2.837,8.667,8.667,0,0,1,2.748-1.951,8.194,8.194,0,0,1,3.422-.718,8.834,8.834,0,0,1,2.19.257,8.578,8.578,0,0,1,3.334,1.711,15.081,15.081,0,0,1,1.286,1.206l-1.17,1.206a13.035,13.035,0,0,0-2.438-1.968,5.957,5.957,0,0,0-3.236-.833,6.481,6.481,0,0,0-2.722.567,6.779,6.779,0,0,0-2.172,1.543,7.377,7.377,0,0,0-1.454,2.314,7.6,7.6,0,0,0-.532,2.855V35a7.567,7.567,0,0,0,.55,2.873,7.456,7.456,0,0,0,1.5,2.341,6.935,6.935,0,0,0,2.217,1.56,6.563,6.563,0,0,0,2.74.567,6.338,6.338,0,0,0,3.218-.816,9.819,9.819,0,0,0,2.491-2.021l1.135,1a12.3,12.3,0,0,1-2.952,2.438Z" transform="translate(-212.2 -19.147)" fill="#4979a4"/>
    <path id="Path_14" data-name="Path 14" d="M284.5,42.624V32.508a6.154,6.154,0,0,0-1.4-4.22A5.068,5.068,0,0,0,279.1,26.7a5.986,5.986,0,0,0-2.341.452,5.869,5.869,0,0,0-1.871,1.25,5.692,5.692,0,0,0-1.25,1.915,6.476,6.476,0,0,0-.452,2.456v9.85H271.55V18.26h1.631V28.775a7.875,7.875,0,0,1,2.341-2.536,6.45,6.45,0,0,1,3.8-1.037,7.573,7.573,0,0,1,2.873.514,6.028,6.028,0,0,1,3.493,3.671,8.47,8.47,0,0,1,.452,2.819V42.624h-1.631Z" transform="translate(-214.781 -18.26)" fill="#4979a4"/>
  </g>
  <g id="Group_5" data-name="Group 5" transform="translate(248.738 16.296)">
    <path id="Path_15" data-name="Path 15" d="M282.19,21.7h-.585V18.921H280.55V18.38h2.686v.541h-1.055V21.7Z" transform="translate(-280.55 -18.38)" fill="#4979a4"/>
    <path id="Path_16" data-name="Path 16" d="M285.861,20.89h-.018l-1.037-1.552v2.367h-.576V18.39h.621l1.011,1.569,1.011-1.569h.621v3.316h-.576V19.33l-1.046,1.56Z" transform="translate(-280.967 -18.381)" fill="#4979a4"/>
  </g>
</svg>
