<svg xmlns="http://www.w3.org/2000/svg" width="13" height="14.857" viewBox="0 0 13 14.857">
  <path id="user" d="M9.1,8.821c-.833,0-1.233.464-2.6.464s-1.764-.464-2.6-.464a3.9,3.9,0,0,0-3.9,3.9v.743a1.393,1.393,0,0,0,1.393,1.393H11.607A1.393,1.393,0,0,0,13,13.464v-.743A3.9,3.9,0,0,0,9.1,8.821Zm2.507,4.643H1.393v-.743A2.512,2.512,0,0,1,3.9,10.214a11.361,11.361,0,0,0,2.6.464,11.252,11.252,0,0,0,2.6-.464,2.512,2.512,0,0,1,2.507,2.507ZM6.5,8.357A4.179,4.179,0,1,0,2.321,4.179,4.18,4.18,0,0,0,6.5,8.357Zm0-6.964A2.79,2.79,0,0,1,9.286,4.179C9.286,5.714,6.5,6.964,6.5,6.964S3.714,5.714,3.714,4.179A2.79,2.79,0,0,1,6.5,1.393Z"/>
</svg>
